<svg width="180" height="25" viewBox="0 0 180 25" fill="none" xmlns="http://www.w3.org/2000/svg">
<path d="M0.295455 24V0.727272H9.02273C10.8106 0.727272 12.3106 1.06061 13.5227 1.72727C14.7424 2.39394 15.6629 3.31061 16.2841 4.47727C16.9129 5.63636 17.2273 6.95454 17.2273 8.43182C17.2273 9.92424 16.9129 11.25 16.2841 12.4091C15.6553 13.5682 14.7273 14.4811 13.5 15.1477C12.2727 15.8068 10.7614 16.1364 8.96591 16.1364H3.18182V12.6705H8.39773C9.44318 12.6705 10.2992 12.4886 10.9659 12.125C11.6326 11.7614 12.125 11.2614 12.4432 10.625C12.7689 9.98864 12.9318 9.25758 12.9318 8.43182C12.9318 7.60606 12.7689 6.87879 12.4432 6.25C12.125 5.62121 11.6288 5.13258 10.9545 4.78409C10.2879 4.42803 9.42803 4.25 8.375 4.25H4.51136V24H0.295455ZM28.071 24.3409C26.3665 24.3409 24.8892 23.9659 23.6392 23.2159C22.3892 22.4659 21.4195 21.4167 20.7301 20.0682C20.0483 18.7197 19.7074 17.1439 19.7074 15.3409C19.7074 13.5379 20.0483 11.9583 20.7301 10.6023C21.4195 9.24621 22.3892 8.19318 23.6392 7.44318C24.8892 6.69318 26.3665 6.31818 28.071 6.31818C29.7756 6.31818 31.2528 6.69318 32.5028 7.44318C33.7528 8.19318 34.7188 9.24621 35.4006 10.6023C36.09 11.9583 36.4347 13.5379 36.4347 15.3409C36.4347 17.1439 36.09 18.7197 35.4006 20.0682C34.7188 21.4167 33.7528 22.4659 32.5028 23.2159C31.2528 23.9659 29.7756 24.3409 28.071 24.3409ZM28.0938 21.0455C29.018 21.0455 29.7907 20.7917 30.4119 20.2841C31.0331 19.7689 31.4953 19.0795 31.7983 18.2159C32.1089 17.3523 32.2642 16.3902 32.2642 15.3295C32.2642 14.2614 32.1089 13.2955 31.7983 12.4318C31.4953 11.5606 31.0331 10.8674 30.4119 10.3523C29.7907 9.83712 29.018 9.57955 28.0938 9.57955C27.1468 9.57955 26.3589 9.83712 25.7301 10.3523C25.1089 10.8674 24.643 11.5606 24.3324 12.4318C24.0294 13.2955 23.8778 14.2614 23.8778 15.3295C23.8778 16.3902 24.0294 17.3523 24.3324 18.2159C24.643 19.0795 25.1089 19.7689 25.7301 20.2841C26.3589 20.7917 27.1468 21.0455 28.0938 21.0455ZM47.5398 24.3409C45.7973 24.3409 44.3011 23.9583 43.0511 23.1932C41.8087 22.428 40.8504 21.3712 40.1761 20.0227C39.5095 18.6667 39.1761 17.1061 39.1761 15.3409C39.1761 13.5682 39.517 12.0038 40.1989 10.6477C40.8807 9.28409 41.8428 8.22348 43.0852 7.46591C44.3352 6.70076 45.8125 6.31818 47.517 6.31818C48.9337 6.31818 50.1875 6.57955 51.2784 7.10227C52.3769 7.61742 53.2519 8.34848 53.9034 9.29545C54.5549 10.2348 54.9261 11.3333 55.017 12.5909H51.0852C50.9261 11.75 50.5473 11.0492 49.9489 10.4886C49.358 9.92045 48.5663 9.63636 47.5739 9.63636C46.733 9.63636 45.9943 9.86364 45.358 10.3182C44.7216 10.7652 44.2254 11.4091 43.8693 12.25C43.5208 13.0909 43.3466 14.0985 43.3466 15.2727C43.3466 16.4621 43.5208 17.4848 43.8693 18.3409C44.2178 19.1894 44.7064 19.8447 45.3352 20.3068C45.9716 20.7614 46.7178 20.9886 47.5739 20.9886C48.1799 20.9886 48.7216 20.875 49.1989 20.6477C49.6837 20.4129 50.089 20.0758 50.4148 19.6364C50.7405 19.197 50.964 18.6629 51.0852 18.0341H55.017C54.9186 19.2689 54.5549 20.3636 53.9261 21.3182C53.2973 22.2652 52.4413 23.0076 51.358 23.5455C50.2746 24.0758 49.0019 24.3409 47.5398 24.3409ZM62.1449 18.5227L62.1335 13.5568H62.7926L69.0653 6.54545H73.8722L66.1562 15.1364H65.304L62.1449 18.5227ZM58.3949 24V0.727272H62.5085V24H58.3949ZM69.3494 24L63.6676 16.0568L66.4403 13.1591L74.2699 24H69.3494ZM83.6222 24.3409C81.8722 24.3409 80.3608 23.9773 79.0881 23.25C77.8229 22.5152 76.8494 21.4773 76.1676 20.1364C75.4858 18.7879 75.1449 17.2008 75.1449 15.375C75.1449 13.5795 75.4858 12.0038 76.1676 10.6477C76.857 9.28409 77.8191 8.22348 79.054 7.46591C80.2888 6.70076 81.7396 6.31818 83.4062 6.31818C84.482 6.31818 85.4972 6.49242 86.4517 6.84091C87.4138 7.18182 88.2623 7.71212 88.9972 8.43182C89.7396 9.15151 90.3229 10.0682 90.7472 11.1818C91.1714 12.2879 91.3835 13.6061 91.3835 15.1364V16.3977H77.0767V13.625H87.4403C87.4328 12.8371 87.2623 12.1364 86.929 11.5227C86.5956 10.9015 86.1297 10.4129 85.5312 10.0568C84.9403 9.70076 84.2509 9.52273 83.4631 9.52273C82.6222 9.52273 81.8835 9.72727 81.2472 10.1364C80.6108 10.5379 80.1146 11.0682 79.7585 11.7273C79.41 12.3788 79.232 13.0947 79.2244 13.875V16.2955C79.2244 17.3106 79.41 18.1818 79.7812 18.9091C80.1525 19.6288 80.6714 20.1818 81.3381 20.5682C82.0047 20.947 82.785 21.1364 83.679 21.1364C84.2775 21.1364 84.8191 21.053 85.304 20.8864C85.7888 20.7121 86.2093 20.4583 86.5653 20.125C86.9214 19.7917 87.1903 19.3788 87.3722 18.8864L91.2131 19.3182C90.9706 20.3333 90.5085 21.2197 89.8267 21.9773C89.1525 22.7273 88.2888 23.3106 87.2358 23.7273C86.1828 24.1364 84.9782 24.3409 83.6222 24.3409ZM103.58 6.54545V9.72727H93.5455V6.54545H103.58ZM96.0227 2.36364H100.136V18.75C100.136 19.303 100.22 19.7273 100.386 20.0227C100.561 20.3106 100.788 20.5076 101.068 20.6136C101.348 20.7197 101.659 20.7727 102 20.7727C102.258 20.7727 102.492 20.7538 102.705 20.7159C102.924 20.678 103.091 20.6439 103.205 20.6136L103.898 23.8295C103.678 23.9053 103.364 23.9886 102.955 24.0795C102.553 24.1705 102.061 24.2235 101.477 24.2386C100.447 24.2689 99.5189 24.1136 98.6932 23.7727C97.8674 23.4242 97.2121 22.8864 96.7273 22.1591C96.25 21.4318 96.0152 20.5227 96.0227 19.4318V2.36364Z" fill="white"/>
<path d="M107.202 24V0.727272H122.111V4.26136H111.418V10.5795H121.088V14.1136H111.418V24H107.202ZM135.801 16.6591V6.54545H139.915V24H135.926V20.8977H135.744C135.35 21.875 134.703 22.6742 133.801 23.2955C132.907 23.9167 131.805 24.2273 130.494 24.2273C129.35 24.2273 128.339 23.9735 127.46 23.4659C126.589 22.9508 125.907 22.2045 125.415 21.2273C124.922 20.2424 124.676 19.053 124.676 17.6591V6.54545H128.79V17.0227C128.79 18.1288 129.093 19.0076 129.699 19.6591C130.305 20.3106 131.1 20.6364 132.085 20.6364C132.691 20.6364 133.278 20.4886 133.847 20.1932C134.415 19.8977 134.881 19.4583 135.244 18.875C135.616 18.2841 135.801 17.5455 135.801 16.6591ZM148.259 13.7727V24H144.145V6.54545H148.077V9.51136H148.281C148.683 8.53409 149.323 7.75758 150.202 7.18182C151.088 6.60606 152.183 6.31818 153.486 6.31818C154.69 6.31818 155.74 6.57576 156.634 7.09091C157.535 7.60606 158.232 8.35227 158.724 9.32955C159.224 10.3068 159.471 11.4924 159.463 12.8864V24H155.349V13.5227C155.349 12.3561 155.046 11.4432 154.44 10.7841C153.842 10.125 153.012 9.79545 151.952 9.79545C151.232 9.79545 150.592 9.95455 150.031 10.2727C149.478 10.5833 149.043 11.0341 148.724 11.625C148.414 12.2159 148.259 12.9318 148.259 13.7727ZM170.122 24.3068C168.751 24.3068 167.524 23.9545 166.44 23.25C165.357 22.5455 164.501 21.5227 163.872 20.1818C163.243 18.8409 162.929 17.2121 162.929 15.2955C162.929 13.3561 163.247 11.7197 163.884 10.3864C164.527 9.04545 165.395 8.03409 166.486 7.35227C167.577 6.66288 168.793 6.31818 170.134 6.31818C171.156 6.31818 171.997 6.49242 172.656 6.84091C173.315 7.18182 173.838 7.5947 174.224 8.07955C174.611 8.55682 174.91 9.00758 175.122 9.43182H175.293V0.727272H179.418V24H175.372V21.25H175.122C174.91 21.6742 174.603 22.125 174.202 22.6023C173.8 23.072 173.27 23.4735 172.611 23.8068C171.952 24.1402 171.122 24.3068 170.122 24.3068ZM171.27 20.9318C172.141 20.9318 172.884 20.697 173.497 20.2273C174.111 19.75 174.577 19.0871 174.895 18.2386C175.213 17.3902 175.372 16.4015 175.372 15.2727C175.372 14.1439 175.213 13.1629 174.895 12.3295C174.584 11.4962 174.122 10.8485 173.509 10.3864C172.902 9.92424 172.156 9.69318 171.27 9.69318C170.353 9.69318 169.588 9.93182 168.974 10.4091C168.361 10.8864 167.899 11.5455 167.588 12.3864C167.277 13.2273 167.122 14.1894 167.122 15.2727C167.122 16.3636 167.277 17.3371 167.588 18.1932C167.906 19.0417 168.372 19.7121 168.986 20.2045C169.607 20.6894 170.368 20.9318 171.27 20.9318Z" fill="#CDFB4C"/>
</svg>
